<svg width="177" height="75" viewBox="0 0 177 75" fill="none" xmlns="http://www.w3.org/2000/svg">
<path d="M81.0137 35.8613C80.476 35.8613 80.0237 35.678 79.6571 35.3113C79.2904 34.9447 79.1071 34.4925 79.1071 33.9547V9.13155C79.1071 8.56933 79.2904 8.11712 79.6571 7.7749C80.0237 7.40823 80.476 7.2249 81.0137 7.2249H89.777C91.4392 7.2249 92.8936 7.5549 94.1403 8.21489C95.4114 8.85044 96.4014 9.74266 97.1103 10.8915C97.8436 12.0404 98.2103 13.3604 98.2103 14.8515C98.2103 16.0493 97.8803 17.137 97.2203 18.1148C96.5847 19.0681 95.7047 19.8259 94.5803 20.3881C96.1936 20.7792 97.4891 21.5492 98.4669 22.6981C99.4447 23.847 99.9336 25.3503 99.9336 27.2081C99.9336 28.8947 99.5302 30.3858 98.7236 31.6814C97.9414 32.9769 96.8414 34.0036 95.4236 34.7613C94.0058 35.4947 92.3803 35.8613 90.547 35.8613H81.0137ZM82.9204 32.3414H90.547C91.6714 32.3414 92.6614 32.1458 93.517 31.7547C94.3725 31.3636 95.0447 30.7891 95.5336 30.0314C96.0225 29.2736 96.2669 28.3325 96.2669 27.2081C96.2669 26.157 96.0225 25.2892 95.5336 24.6048C95.0447 23.9203 94.3725 23.407 93.517 23.0648C92.6614 22.6981 91.6714 22.5148 90.547 22.5148H82.9204V32.3414ZM82.9204 18.9948H89.777C91.1703 18.9948 92.307 18.6526 93.187 17.9681C94.0914 17.2837 94.5436 16.2448 94.5436 14.8515C94.5436 13.4582 94.0914 12.4315 93.187 11.7715C92.307 11.0871 91.1703 10.7449 89.777 10.7449H82.9204V18.9948ZM113.598 36.008C111.813 36.008 110.212 35.568 108.794 34.688C107.376 33.7836 106.252 32.5736 105.421 31.058C104.614 29.518 104.211 27.7825 104.211 25.8514C104.211 23.9203 104.651 22.1848 105.531 20.6448C106.435 19.1048 107.645 17.8948 109.161 17.0148C110.701 16.1104 112.424 15.6582 114.331 15.6582C116.237 15.6582 117.949 16.1104 119.464 17.0148C120.98 17.8948 122.177 19.1048 123.057 20.6448C123.962 22.1848 124.414 23.9203 124.414 25.8514H122.984C122.984 27.7825 122.569 29.518 121.737 31.058C120.931 32.5736 119.819 33.7836 118.401 34.688C116.983 35.568 115.382 36.008 113.598 36.008ZM114.331 32.708C115.578 32.708 116.69 32.4147 117.667 31.828C118.645 31.2169 119.415 30.398 119.977 29.3714C120.54 28.3203 120.821 27.147 120.821 25.8514C120.821 24.5314 120.54 23.3581 119.977 22.3314C119.415 21.2803 118.645 20.4615 117.667 19.8748C116.69 19.2637 115.578 18.9581 114.331 18.9581C113.109 18.9581 111.996 19.2637 110.994 19.8748C110.016 20.4615 109.234 21.2803 108.648 22.3314C108.085 23.3581 107.804 24.5314 107.804 25.8514C107.804 27.147 108.085 28.3203 108.648 29.3714C109.234 30.398 110.016 31.2169 110.994 31.828C111.996 32.4147 113.109 32.708 114.331 32.708ZM122.544 35.898C122.006 35.898 121.554 35.7269 121.187 35.3847C120.845 35.018 120.674 34.5658 120.674 34.028V28.4181L121.371 24.5314L124.414 25.8514V34.028C124.414 34.5658 124.231 35.018 123.864 35.3847C123.522 35.7269 123.082 35.898 122.544 35.898ZM133.49 35.8613C133.099 35.8613 132.732 35.7513 132.39 35.5313C132.072 35.2869 131.852 34.9936 131.73 34.6513L126.304 18.3715C126.108 17.6137 126.108 17.0026 126.304 16.5382C126.524 16.0493 126.988 15.8048 127.697 15.8048C128.161 15.8048 128.54 15.9393 128.834 16.2082C129.151 16.4526 129.408 16.8804 129.604 17.4915L134.223 31.938H132.94L137.303 17.1982C137.426 16.7826 137.633 16.4526 137.927 16.2082C138.22 15.9393 138.623 15.8048 139.137 15.8048C139.626 15.8048 140.017 15.9393 140.31 16.2082C140.628 16.4526 140.836 16.7826 140.933 17.1982L144.49 31.058H143.94L148.267 17.4915C148.609 16.367 149.244 15.8048 150.173 15.8048C150.858 15.8048 151.322 16.0493 151.567 16.5382C151.811 17.0026 151.799 17.6137 151.53 18.3715L146.103 34.6513C146.006 34.9936 145.798 35.2869 145.48 35.5313C145.162 35.7513 144.796 35.8613 144.38 35.8613C143.989 35.8613 143.622 35.7513 143.28 35.5313C142.938 35.2869 142.718 34.9936 142.62 34.6513L138.843 20.6815H139.21L135.25 34.6513C135.152 34.9936 134.932 35.2869 134.59 35.5313C134.272 35.7513 133.906 35.8613 133.49 35.8613ZM163.19 36.008C161.406 36.008 159.805 35.568 158.387 34.688C156.969 33.7836 155.845 32.5736 155.014 31.058C154.207 29.518 153.804 27.7825 153.804 25.8514C153.804 23.9203 154.244 22.1848 155.124 20.6448C156.028 19.1048 157.238 17.8948 158.754 17.0148C160.294 16.1104 162.017 15.6582 163.924 15.6582C165.83 15.6582 167.541 16.1104 169.057 17.0148C170.572 17.8948 171.77 19.1048 172.65 20.6448C173.555 22.1848 174.007 23.9203 174.007 25.8514H172.577C172.577 27.7825 172.161 29.518 171.33 31.058C170.523 32.5736 169.411 33.7836 167.994 34.688C166.576 35.568 164.975 36.008 163.19 36.008ZM163.924 32.708C165.17 32.708 166.282 32.4147 167.26 31.828C168.238 31.2169 169.008 30.398 169.57 29.3714C170.132 28.3203 170.413 27.147 170.413 25.8514C170.413 24.5314 170.132 23.3581 169.57 22.3314C169.008 21.2803 168.238 20.4615 167.26 19.8748C166.282 19.2637 165.17 18.9581 163.924 18.9581C162.701 18.9581 161.589 19.2637 160.587 19.8748C159.609 20.4615 158.827 21.2803 158.24 22.3314C157.678 23.3581 157.397 24.5314 157.397 25.8514C157.397 27.147 157.678 28.3203 158.24 29.3714C158.827 30.398 159.609 31.2169 160.587 31.828C161.589 32.4147 162.701 32.708 163.924 32.708ZM172.137 35.898C171.599 35.898 171.147 35.7269 170.78 35.3847C170.438 35.018 170.267 34.5658 170.267 34.028V28.4181L170.963 24.5314L174.007 25.8514V34.028C174.007 34.5658 173.823 35.018 173.457 35.3847C173.115 35.7269 172.675 35.898 172.137 35.898ZM81.4824 65.8613C81.079 65.8613 80.7399 65.7238 80.4649 65.4488C80.1899 65.1738 80.0524 64.8347 80.0524 64.4313V45.814C80.0524 45.3923 80.1899 45.0532 80.4649 44.7965C80.7399 44.5215 81.079 44.384 81.4824 44.384C81.904 44.384 82.2432 44.5215 82.4999 44.7965C82.7749 45.0532 82.9124 45.3923 82.9124 45.814V53.7064H95.6723V45.814C95.6723 45.3923 95.8098 45.0532 96.0848 44.7965C96.3598 44.5215 96.6989 44.384 97.1022 44.384C97.5239 44.384 97.8631 44.5215 98.1197 44.7965C98.3764 45.0532 98.5047 45.3923 98.5047 45.814V64.4313C98.5047 64.8347 98.3764 65.1738 98.1197 65.4488C97.8631 65.7238 97.5239 65.8613 97.1022 65.8613C96.6989 65.8613 96.3598 65.7238 96.0848 65.4488C95.8098 65.1738 95.6723 64.8347 95.6723 64.4313V56.2364H82.9124V64.4313C82.9124 64.8347 82.7749 65.1738 82.4999 65.4488C82.2432 65.7238 81.904 65.8613 81.4824 65.8613ZM110.8 65.9713C109.278 65.9713 107.921 65.6505 106.73 65.0088C105.556 64.3488 104.631 63.4505 103.952 62.3139C103.292 61.1589 102.962 59.8389 102.962 58.3539C102.962 56.8506 103.274 55.5306 103.897 54.3939C104.539 53.2389 105.419 52.3406 106.537 51.6989C107.656 51.039 108.939 50.709 110.387 50.709C111.817 50.709 113.046 51.0298 114.072 51.6714C115.099 52.2948 115.878 53.1656 116.41 54.2839C116.96 55.3839 117.235 56.6581 117.235 58.1064C117.235 58.4547 117.115 58.7481 116.877 58.9864C116.639 59.2064 116.336 59.3164 115.97 59.3164H104.887V57.1164H115.887L114.76 57.8864C114.741 56.9697 114.558 56.1539 114.21 55.4389C113.861 54.7056 113.366 54.1281 112.725 53.7064C112.083 53.2848 111.304 53.0739 110.387 53.0739C109.342 53.0739 108.444 53.3031 107.692 53.7614C106.959 54.2198 106.4 54.8523 106.015 55.6589C105.63 56.4472 105.437 57.3456 105.437 58.3539C105.437 59.3622 105.666 60.2605 106.125 61.0489C106.583 61.8372 107.216 62.4605 108.022 62.9189C108.829 63.3772 109.755 63.6063 110.8 63.6063C111.368 63.6063 111.946 63.5055 112.532 63.3038C113.137 63.0839 113.623 62.8364 113.99 62.5614C114.265 62.3597 114.558 62.2589 114.87 62.2589C115.2 62.2405 115.484 62.3322 115.722 62.5339C116.034 62.8089 116.199 63.1114 116.217 63.4413C116.235 63.7713 116.089 64.0555 115.777 64.2938C115.154 64.7888 114.375 65.1922 113.44 65.5038C112.523 65.8155 111.643 65.9713 110.8 65.9713ZM126.545 65.9713C125.207 65.9713 124.006 65.6413 122.943 64.9813C121.879 64.303 121.036 63.3955 120.413 62.2589C119.808 61.1039 119.505 59.8022 119.505 58.3539C119.505 56.9056 119.835 55.6039 120.495 54.4489C121.173 53.2939 122.081 52.3864 123.218 51.7264C124.373 51.0481 125.665 50.709 127.095 50.709C128.525 50.709 129.808 51.0481 130.945 51.7264C132.082 52.3864 132.98 53.2939 133.64 54.4489C134.318 55.6039 134.657 56.9056 134.657 58.3539H133.585C133.585 59.8022 133.273 61.1039 132.65 62.2589C132.045 63.3955 131.211 64.303 130.148 64.9813C129.084 65.6413 127.883 65.9713 126.545 65.9713ZM127.095 63.4963C128.03 63.4963 128.864 63.2763 129.598 62.8364C130.331 62.378 130.908 61.7639 131.33 60.9939C131.752 60.2055 131.962 59.3255 131.962 58.3539C131.962 57.3639 131.752 56.4839 131.33 55.7139C130.908 54.9256 130.331 54.3114 129.598 53.8714C128.864 53.4131 128.03 53.1839 127.095 53.1839C126.178 53.1839 125.344 53.4131 124.593 53.8714C123.859 54.3114 123.273 54.9256 122.833 55.7139C122.411 56.4839 122.2 57.3639 122.2 58.3539C122.2 59.3255 122.411 60.2055 122.833 60.9939C123.273 61.7639 123.859 62.378 124.593 62.8364C125.344 63.2763 126.178 63.4963 127.095 63.4963ZM133.255 65.8888C132.852 65.8888 132.512 65.7605 132.237 65.5038C131.981 65.2288 131.853 64.8897 131.853 64.4863V60.2789L132.375 57.3639L134.657 58.3539V64.4863C134.657 64.8897 134.52 65.2288 134.245 65.5038C133.988 65.7605 133.658 65.8888 133.255 65.8888ZM142.407 65.8613C141.6 65.8613 140.885 65.6413 140.262 65.2013C139.639 64.7613 139.153 64.1655 138.805 63.4138C138.456 62.6439 138.282 61.7639 138.282 60.7739V45.759C138.282 45.3557 138.41 45.0257 138.667 44.769C138.924 44.5123 139.254 44.384 139.657 44.384C140.06 44.384 140.39 44.5123 140.647 44.769C140.904 45.0257 141.032 45.3557 141.032 45.759V60.7739C141.032 61.4522 141.16 62.0114 141.417 62.4514C141.674 62.8914 142.004 63.1114 142.407 63.1114H143.095C143.461 63.1114 143.755 63.2397 143.975 63.4963C144.213 63.753 144.332 64.083 144.332 64.4863C144.332 64.8897 144.158 65.2197 143.81 65.4763C143.461 65.733 143.012 65.8613 142.462 65.8613H142.407ZM152.549 65.8613C151.632 65.8613 150.807 65.6322 150.074 65.1738C149.341 64.6972 148.763 64.0555 148.342 63.2488C147.92 62.4422 147.709 61.5347 147.709 60.5264V47.409C147.709 47.0057 147.837 46.6757 148.094 46.419C148.351 46.1623 148.681 46.034 149.084 46.034C149.487 46.034 149.817 46.1623 150.074 46.419C150.331 46.6757 150.459 47.0057 150.459 47.409V60.5264C150.459 61.2597 150.661 61.8739 151.064 62.3689C151.467 62.8639 151.962 63.1114 152.549 63.1114H153.484C153.814 63.1114 154.089 63.2397 154.309 63.4963C154.547 63.753 154.667 64.083 154.667 64.4863C154.667 64.8897 154.511 65.2197 154.199 65.4763C153.906 65.733 153.521 65.8613 153.044 65.8613H152.549ZM146.444 53.7339C146.059 53.7339 145.747 53.6239 145.509 53.4039C145.271 53.1839 145.152 52.9089 145.152 52.5789C145.152 52.2123 145.271 51.9189 145.509 51.6989C145.747 51.4789 146.059 51.3689 146.444 51.3689H152.797C153.182 51.3689 153.493 51.4789 153.732 51.6989C153.97 51.9189 154.089 52.2123 154.089 52.5789C154.089 52.9089 153.97 53.1839 153.732 53.4039C153.493 53.6239 153.182 53.7339 152.797 53.7339H146.444ZM159.517 60.3889C159.113 60.3889 158.774 60.2605 158.499 60.0039C158.242 59.7289 158.114 59.3897 158.114 58.9864V45.7865C158.114 45.3648 158.242 45.0257 158.499 44.769C158.774 44.5123 159.113 44.384 159.517 44.384C159.938 44.384 160.277 44.5123 160.534 44.769C160.791 45.0257 160.919 45.3648 160.919 45.7865V58.9864C160.919 59.3897 160.791 59.7289 160.534 60.0039C160.277 60.2605 159.938 60.3889 159.517 60.3889ZM170.819 65.8888C170.416 65.8888 170.077 65.7605 169.802 65.5038C169.545 65.2288 169.417 64.8897 169.417 64.4863V57.7214C169.417 56.6764 169.224 55.8239 168.839 55.1639C168.454 54.5039 167.932 54.0181 167.272 53.7064C166.63 53.3764 165.887 53.2114 165.044 53.2114C164.274 53.2114 163.577 53.3673 162.954 53.6789C162.331 53.9906 161.836 54.4123 161.469 54.9439C161.102 55.4572 160.919 56.0531 160.919 56.7314H159.187C159.187 55.5764 159.462 54.5498 160.012 53.6514C160.58 52.7348 161.35 52.0106 162.322 51.4789C163.293 50.9473 164.384 50.6815 165.594 50.6815C166.859 50.6815 167.987 50.9565 168.977 51.5064C169.985 52.0381 170.773 52.8264 171.342 53.8714C171.928 54.9164 172.222 56.1997 172.222 57.7214V64.4863C172.222 64.8897 172.084 65.2288 171.809 65.5038C171.552 65.7605 171.222 65.8888 170.819 65.8888ZM159.517 65.8888C159.113 65.8888 158.774 65.7605 158.499 65.5038C158.242 65.2288 158.114 64.8897 158.114 64.4863V52.2214C158.114 51.7998 158.242 51.4606 158.499 51.2039C158.774 50.9473 159.113 50.819 159.517 50.819C159.938 50.819 160.277 50.9473 160.534 51.2039C160.791 51.4606 160.919 51.7998 160.919 52.2214V64.4863C160.919 64.8897 160.791 65.2288 160.534 65.5038C160.277 65.7605 159.938 65.8888 159.517 65.8888Z" fill="white"/>
<path d="M26.7179 26.8427C26.7179 20.2477 18.5581 26.9347 16.1016 29.8185C14.5189 26.0473 12.8845 22.9822 7.4155 24.9124C1.94649 26.8427 0.659655 35.3679 4.03758 42.1238C7.4155 48.8796 10.7571 55.2806 16.1016 58.4504C21.0848 49.8893 28.6113 28.58 26.7179 26.8427ZM26.7179 26.8427C29.0503 43.5714 32.5086 72.2838 32.5086 72.2838L43.2858 2.39294L49.2374 40.5956C52.1225 32.8716 53.7406 28.9078 56.6367 29.8185C62.8504 32.7088 59.1961 39.7961 49.2374 55.0725" stroke="#0e6e8e" stroke-width="3.98587" stroke-linecap="round" stroke-linejoin="round"/>
</svg>
