<svg width="89" height="38" viewBox="0 0 89 38" fill="none" xmlns="http://www.w3.org/2000/svg">
<path d="M40.9104 18.4727C40.6443 18.4727 40.4206 18.3819 40.2392 18.2005C40.0577 18.0191 39.967 17.7954 39.967 17.5293V5.2471C39.967 4.96892 40.0577 4.74517 40.2392 4.57585C40.4206 4.39443 40.6443 4.30372 40.9104 4.30372H45.2464C46.0688 4.30372 46.7884 4.467 47.4053 4.79355C48.0342 5.10801 48.524 5.54947 48.8748 6.11792C49.2376 6.68637 49.419 7.33949 49.419 8.07726C49.419 8.6699 49.2558 9.20812 48.9292 9.6919C48.6147 10.1636 48.1793 10.5385 47.623 10.8167C48.4212 11.0102 49.0622 11.3912 49.546 11.9597C50.0298 12.5281 50.2717 13.2719 50.2717 14.1911C50.2717 15.0257 50.0722 15.7634 49.673 16.4045C49.286 17.0455 48.7417 17.5535 48.0402 17.9284C47.3388 18.2912 46.5345 18.4727 45.6274 18.4727H40.9104ZM41.8538 16.731H45.6274C46.1837 16.731 46.6735 16.6343 47.0969 16.4407C47.5202 16.2472 47.8528 15.963 48.0947 15.5881C48.3366 15.2131 48.4575 14.7475 48.4575 14.1911C48.4575 13.6711 48.3366 13.2417 48.0947 12.903C47.8528 12.5644 47.5202 12.3104 47.0969 12.1411C46.6735 11.9597 46.1837 11.869 45.6274 11.869H41.8538V16.731ZM41.8538 10.1273H45.2464C45.9358 10.1273 46.4982 9.95799 46.9336 9.61934C47.3811 9.28068 47.6048 8.76666 47.6048 8.07726C47.6048 7.38786 47.3811 6.87989 46.9336 6.55333C46.4982 6.21468 45.9358 6.04535 45.2464 6.04535H41.8538V10.1273ZM57.0325 18.5452C56.1496 18.5452 55.3573 18.3275 54.6559 17.8921C53.9544 17.4446 53.398 16.8459 52.9868 16.096C52.5877 15.3341 52.3881 14.4754 52.3881 13.5199C52.3881 12.5644 52.6058 11.7057 53.0412 10.9437C53.4887 10.1817 54.0874 9.58305 54.8373 9.14764C55.5992 8.70014 56.4519 8.47639 57.3953 8.47639C58.3387 8.47639 59.1853 8.70014 59.9352 9.14764C60.6851 9.58305 61.2777 10.1817 61.7131 10.9437C62.1606 11.7057 62.3844 12.5644 62.3844 13.5199H61.6768C61.6768 14.4754 61.4712 15.3341 61.06 16.096C60.6609 16.8459 60.1106 17.4446 59.4091 17.8921C58.7076 18.3275 57.9154 18.5452 57.0325 18.5452ZM57.3953 16.9124C58.0121 16.9124 58.5624 16.7673 59.0462 16.477C59.53 16.1747 59.911 15.7695 60.1892 15.2615C60.4674 14.7414 60.6064 14.1609 60.6064 13.5199C60.6064 12.8668 60.4674 12.2862 60.1892 11.7782C59.911 11.2582 59.53 10.853 59.0462 10.5627C58.5624 10.2604 58.0121 10.1092 57.3953 10.1092C56.7906 10.1092 56.2403 10.2604 55.7444 10.5627C55.2606 10.853 54.8736 11.2582 54.5833 11.7782C54.3051 12.2862 54.166 12.8668 54.166 13.5199C54.166 14.1609 54.3051 14.7414 54.5833 15.2615C54.8736 15.7695 55.2606 16.1747 55.7444 16.477C56.2403 16.7673 56.7906 16.9124 57.3953 16.9124ZM61.4591 18.4908C61.193 18.4908 60.9693 18.4061 60.7879 18.2368C60.6185 18.0554 60.5339 17.8316 60.5339 17.5656V14.7898L60.8786 12.8668L62.3844 13.5199V17.5656C62.3844 17.8316 62.2937 18.0554 62.1122 18.2368C61.9429 18.4061 61.7252 18.4908 61.4591 18.4908ZM66.8751 18.4727C66.6816 18.4727 66.5002 18.4182 66.3308 18.3094C66.1736 18.1884 66.0647 18.0433 66.0043 17.874L63.3193 9.8189C63.2225 9.44396 63.2225 9.1416 63.3193 8.9118C63.4281 8.6699 63.6579 8.54896 64.0086 8.54896C64.2384 8.54896 64.4259 8.61548 64.5711 8.74852C64.7283 8.86947 64.8553 9.08112 64.952 9.38349L67.2379 16.5315H66.603L68.7619 9.23835C68.8223 9.03274 68.9251 8.86947 69.0703 8.74852C69.2154 8.61548 69.415 8.54896 69.669 8.54896C69.9109 8.54896 70.1044 8.61548 70.2495 8.74852C70.4067 8.86947 70.5095 9.03274 70.5579 9.23835L72.3177 16.096H72.0456L74.1863 9.38349C74.3557 8.82713 74.6701 8.54896 75.1297 8.54896C75.4684 8.54896 75.6982 8.6699 75.8191 8.9118C75.9401 9.1416 75.934 9.44396 75.801 9.8189L73.116 17.874C73.0676 18.0433 72.9648 18.1884 72.8075 18.3094C72.6503 18.4182 72.4689 18.4727 72.2633 18.4727C72.0698 18.4727 71.8883 18.4182 71.719 18.3094C71.5497 18.1884 71.4408 18.0433 71.3925 17.874L69.5238 10.9618H69.7053L67.7459 17.874C67.6975 18.0433 67.5887 18.1884 67.4194 18.3094C67.2621 18.4182 67.0807 18.4727 66.8751 18.4727ZM81.5703 18.5452C80.6874 18.5452 79.8952 18.3275 79.1937 17.8921C78.4922 17.4446 77.9358 16.8459 77.5246 16.096C77.1255 15.3341 76.9259 14.4754 76.9259 13.5199C76.9259 12.5644 77.1436 11.7057 77.579 10.9437C78.0265 10.1817 78.6252 9.58305 79.3751 9.14764C80.1371 8.70014 80.9897 8.47639 81.9331 8.47639C82.8765 8.47639 83.7231 8.70014 84.473 9.14764C85.2229 9.58305 85.8155 10.1817 86.2509 10.9437C86.6984 11.7057 86.9222 12.5644 86.9222 13.5199H86.2147C86.2147 14.4754 86.009 15.3341 85.5978 16.096C85.1987 16.8459 84.6484 17.4446 83.9469 17.8921C83.2454 18.3275 82.4532 18.5452 81.5703 18.5452ZM81.9331 16.9124C82.55 16.9124 83.1003 16.7673 83.5841 16.477C84.0678 16.1747 84.4488 15.7695 84.727 15.2615C85.0052 14.7414 85.1443 14.1609 85.1443 13.5199C85.1443 12.8668 85.0052 12.2862 84.727 11.7782C84.4488 11.2582 84.0678 10.853 83.5841 10.5627C83.1003 10.2604 82.55 10.1092 81.9331 10.1092C81.3284 10.1092 80.7781 10.2604 80.2822 10.5627C79.7984 10.853 79.4114 11.2582 79.1211 11.7782C78.8429 12.2862 78.7038 12.8668 78.7038 13.5199C78.7038 14.1609 78.8429 14.7414 79.1211 15.2615C79.4114 15.7695 79.7984 16.1747 80.2822 16.477C80.7781 16.7673 81.3284 16.9124 81.9331 16.9124ZM85.997 18.4908C85.7309 18.4908 85.5071 18.4061 85.3257 18.2368C85.1564 18.0554 85.0717 17.8316 85.0717 17.5656V14.7898L85.4164 12.8668L86.9222 13.5199V17.5656C86.9222 17.8316 86.8315 18.0554 86.6501 18.2368C86.4807 18.4061 86.263 18.4908 85.997 18.4908ZM41.1423 33.4727C40.9427 33.4727 40.7749 33.4046 40.6389 33.2686C40.5028 33.1325 40.4348 32.9647 40.4348 32.7651V23.5535C40.4348 23.3449 40.5028 23.177 40.6389 23.05C40.7749 22.914 40.9427 22.846 41.1423 22.846C41.3509 22.846 41.5187 22.914 41.6457 23.05C41.7818 23.177 41.8498 23.3449 41.8498 23.5535V27.4586H48.1633V23.5535C48.1633 23.3449 48.2313 23.177 48.3674 23.05C48.5034 22.914 48.6712 22.846 48.8708 22.846C49.0794 22.846 49.2473 22.914 49.3743 23.05C49.5012 23.177 49.5647 23.3449 49.5647 23.5535V32.7651C49.5647 32.9647 49.5012 33.1325 49.3743 33.2686C49.2473 33.4046 49.0794 33.4727 48.8708 33.4727C48.6712 33.4727 48.5034 33.4046 48.3674 33.2686C48.2313 33.1325 48.1633 32.9647 48.1633 32.7651V28.7104H41.8498V32.7651C41.8498 32.9647 41.7818 33.1325 41.6457 33.2686C41.5187 33.4046 41.3509 33.4727 41.1423 33.4727ZM55.6481 33.5271C54.8952 33.5271 54.224 33.3683 53.6344 33.0509C53.0538 32.7243 52.5957 32.2798 52.2601 31.7174C51.9336 31.1459 51.7703 30.4928 51.7703 29.7581C51.7703 29.0142 51.9245 28.3611 52.2329 27.7987C52.5504 27.2273 52.9858 26.7828 53.5391 26.4653C54.0925 26.1387 54.7274 25.9755 55.444 25.9755C56.1516 25.9755 56.7593 26.1342 57.2673 26.4517C57.7753 26.7601 58.1608 27.191 58.4239 27.7443C58.696 28.2886 58.8321 28.919 58.8321 29.6356C58.8321 29.808 58.7731 29.9531 58.6552 30.071C58.5373 30.1799 58.3876 30.2343 58.2062 30.2343H52.7227V29.1458H58.1654L57.6075 29.5268C57.5984 29.0732 57.5077 28.6695 57.3354 28.3158C57.163 27.9529 56.9181 27.6672 56.6006 27.4586C56.2831 27.2499 55.8976 27.1456 55.444 27.1456C54.927 27.1456 54.4825 27.259 54.1106 27.4858C53.7478 27.7126 53.4711 28.0255 53.2806 28.4246C53.0901 28.8147 52.9949 29.2592 52.9949 29.7581C52.9949 30.257 53.1083 30.7015 53.335 31.0915C53.5618 31.4816 53.8748 31.79 54.2739 32.0168C54.673 32.2435 55.1311 32.3569 55.6481 32.3569C55.9293 32.3569 56.2151 32.307 56.5054 32.2072C56.8047 32.0984 57.0451 31.9759 57.2265 31.8399C57.3626 31.7401 57.5077 31.6902 57.6619 31.6902C57.8252 31.6811 57.9658 31.7265 58.0837 31.8263C58.2379 31.9623 58.3196 32.112 58.3286 32.2753C58.3377 32.4386 58.2651 32.5792 58.1109 32.6971C57.8025 32.942 57.417 33.1416 56.9544 33.2958C56.5008 33.45 56.0654 33.5271 55.6481 33.5271ZM63.4387 33.5271C62.7765 33.5271 62.1824 33.3638 61.6563 33.0372C61.1302 32.7016 60.7129 32.2526 60.4045 31.6902C60.1051 31.1187 59.9555 30.4747 59.9555 29.7581C59.9555 29.0415 60.1187 28.3974 60.4453 27.8259C60.7809 27.2545 61.2299 26.8055 61.7923 26.4789C62.3638 26.1433 63.0033 25.9755 63.7109 25.9755C64.4184 25.9755 65.0534 26.1433 65.6158 26.4789C66.1782 26.8055 66.6227 27.2545 66.9492 27.8259C67.2848 28.3974 67.4527 29.0415 67.4527 29.7581H66.922C66.922 30.4747 66.7678 31.1187 66.4594 31.6902C66.16 32.2526 65.7473 32.7016 65.2212 33.0372C64.6951 33.3638 64.1009 33.5271 63.4387 33.5271ZM63.7109 32.3025C64.1735 32.3025 64.5862 32.1936 64.9491 31.9759C65.3119 31.7492 65.5976 31.4453 65.8063 31.0643C66.0149 30.6742 66.1192 30.2388 66.1192 29.7581C66.1192 29.2682 66.0149 28.8328 65.8063 28.4518C65.5976 28.0618 65.3119 27.7579 64.9491 27.5402C64.5862 27.3134 64.1735 27.2 63.7109 27.2C63.2573 27.2 62.8446 27.3134 62.4727 27.5402C62.1098 27.7579 61.8196 28.0618 61.6019 28.4518C61.3932 28.8328 61.2889 29.2682 61.2889 29.7581C61.2889 30.2388 61.3932 30.6742 61.6019 31.0643C61.8196 31.4453 62.1098 31.7492 62.4727 31.9759C62.8446 32.1936 63.2573 32.3025 63.7109 32.3025ZM66.7587 33.4863C66.5592 33.4863 66.3914 33.4228 66.2553 33.2958C66.1283 33.1597 66.0648 32.9919 66.0648 32.7923V30.7105L66.3233 29.2682L67.4527 29.7581V32.7923C67.4527 32.9919 67.3846 33.1597 67.2486 33.2958C67.1216 33.4228 66.9583 33.4863 66.7587 33.4863ZM71.287 33.4727C70.8879 33.4727 70.5342 33.3638 70.2257 33.1461C69.9173 32.9284 69.6769 32.6336 69.5046 32.2617C69.3322 31.8807 69.2461 31.4453 69.2461 30.9554V23.5263C69.2461 23.3267 69.3096 23.1634 69.4366 23.0364C69.5636 22.9094 69.7268 22.846 69.9264 22.846C70.126 22.846 70.2892 22.9094 70.4162 23.0364C70.5432 23.1634 70.6067 23.3267 70.6067 23.5263V30.9554C70.6067 31.2911 70.6702 31.5677 70.7972 31.7854C70.9242 32.0032 71.0875 32.112 71.287 32.112H71.6272C71.8086 32.112 71.9538 32.1755 72.0626 32.3025C72.1805 32.4295 72.2395 32.5928 72.2395 32.7923C72.2395 32.9919 72.1533 33.1552 71.981 33.2822C71.8086 33.4092 71.5864 33.4727 71.3143 33.4727H71.287ZM76.3052 33.4727C75.8517 33.4727 75.4435 33.3593 75.0806 33.1325C74.7178 32.8966 74.432 32.5792 74.2234 32.18C74.0148 31.7809 73.9105 31.3319 73.9105 30.833V24.3427C73.9105 24.1431 73.9739 23.9798 74.1009 23.8528C74.2279 23.7258 74.3912 23.6623 74.5908 23.6623C74.7903 23.6623 74.9536 23.7258 75.0806 23.8528C75.2076 23.9798 75.2711 24.1431 75.2711 24.3427V30.833C75.2711 31.1958 75.3709 31.4997 75.5704 31.7446C75.77 31.9895 76.0149 32.112 76.3052 32.112H76.7678C76.9311 32.112 77.0672 32.1755 77.176 32.3025C77.2939 32.4295 77.3529 32.5928 77.3529 32.7923C77.3529 32.9919 77.2758 33.1552 77.1216 33.2822C76.9765 33.4092 76.786 33.4727 76.5501 33.4727H76.3052ZM73.2846 27.4722C73.0941 27.4722 72.9399 27.4177 72.8219 27.3089C72.704 27.2 72.645 27.064 72.645 26.9007C72.645 26.7193 72.704 26.5741 72.8219 26.4653C72.9399 26.3564 73.0941 26.302 73.2846 26.302H76.4277C76.6182 26.302 76.7724 26.3564 76.8903 26.4653C77.0082 26.5741 77.0672 26.7193 77.0672 26.9007C77.0672 27.064 77.0082 27.2 76.8903 27.3089C76.7724 27.4177 76.6182 27.4722 76.4277 27.4722H73.2846ZM79.7527 30.765C79.5531 30.765 79.3853 30.7015 79.2492 30.5745C79.1222 30.4384 79.0587 30.2706 79.0587 30.071V23.5399C79.0587 23.3313 79.1222 23.1634 79.2492 23.0364C79.3853 22.9094 79.5531 22.846 79.7527 22.846C79.9613 22.846 80.1291 22.9094 80.2561 23.0364C80.3831 23.1634 80.4466 23.3313 80.4466 23.5399V30.071C80.4466 30.2706 80.3831 30.4384 80.2561 30.5745C80.1291 30.7015 79.9613 30.765 79.7527 30.765ZM85.3449 33.4863C85.1454 33.4863 84.9776 33.4228 84.8415 33.2958C84.7145 33.1597 84.651 32.9919 84.651 32.7923V29.4451C84.651 28.9281 84.5558 28.5063 84.3653 28.1797C84.1748 27.8532 83.9163 27.6128 83.5897 27.4586C83.2722 27.2953 82.9048 27.2136 82.4876 27.2136C82.1066 27.2136 81.7619 27.2908 81.4535 27.445C81.1451 27.5992 80.9001 27.8078 80.7187 28.0709C80.5373 28.3248 80.4466 28.6197 80.4466 28.9553H79.5894C79.5894 28.3838 79.7254 27.8758 79.9976 27.4314C80.2788 26.9778 80.6598 26.6195 81.1405 26.3564C81.6213 26.0934 82.161 25.9618 82.7597 25.9618C83.3856 25.9618 83.9435 26.0979 84.4333 26.37C84.9322 26.6331 85.3223 27.0232 85.6035 27.5402C85.8937 28.0573 86.0389 28.6922 86.0389 29.4451V32.7923C86.0389 32.9919 85.9708 33.1597 85.8348 33.2958C85.7078 33.4228 85.5445 33.4863 85.3449 33.4863ZM79.7527 33.4863C79.5531 33.4863 79.3853 33.4228 79.2492 33.2958C79.1222 33.1597 79.0587 32.9919 79.0587 32.7923V26.7238C79.0587 26.5152 79.1222 26.3474 79.2492 26.2204C79.3853 26.0934 79.5531 26.0299 79.7527 26.0299C79.9613 26.0299 80.1291 26.0934 80.2561 26.2204C80.3831 26.3474 80.4466 26.5152 80.4466 26.7238V32.7923C80.4466 32.9919 80.3831 33.1597 80.2561 33.2958C80.1291 33.4228 79.9613 33.4863 79.7527 33.4863Z" fill="#010C0F"/>
<path d="M14.0324 13.8436C14.0324 10.5805 9.99504 13.8892 8.77961 15.316C7.99653 13.4501 7.18785 11.9335 4.48185 12.8886C1.77585 13.8436 1.13914 18.0618 2.81049 21.4045C4.48185 24.7472 6.13524 27.9144 8.77961 29.4827C11.2452 25.2468 14.9692 14.7032 14.0324 13.8436ZM14.0324 13.8436C15.1865 22.1208 16.8976 36.3273 16.8976 36.3273L22.23 1.74622L25.1748 20.6484C26.6023 16.8267 27.4029 14.8654 28.8359 15.316C31.9103 16.7461 30.1022 20.2528 25.1748 27.8114" stroke="#0E6E8E" stroke-width="1.97216" stroke-linecap="round" stroke-linejoin="round"/>
</svg>
