<svg width="352" height="159" viewBox="0 0 352 159" fill="none" xmlns="http://www.w3.org/2000/svg">
<g clip-path="url(#clip0_64_52)">
<path d="M227.066 0H3.933C2.88119 0.0101865 1.87637 0.435611 1.13899 1.18295C0.401601 1.93029 -0.00815733 2.93852 -0.000379546 3.98646V155.022C-0.00646463 156.069 0.404107 157.075 1.14137 157.821C1.87863 158.566 2.88248 158.99 3.933 159H227.066C228.116 158.99 229.12 158.566 229.858 157.821C230.595 157.075 231.005 156.069 230.999 155.022V3.98646C231.007 2.93862 230.597 1.93048 229.86 1.18315C229.123 0.435829 228.118 0.010338 227.067 0H227.066Z" fill="#E6E6E6"/>
<path d="M220.617 0.911133H4.31453C3.30242 0.913039 2.33242 1.31491 1.61737 2.02855C0.902323 2.74219 0.50064 3.70931 0.500488 4.71767V148.944C0.501941 149.951 0.904248 150.917 1.6192 151.629C2.33416 152.342 3.30343 152.743 4.31453 152.744H220.617C221.628 152.743 222.597 152.342 223.312 151.629C224.027 150.917 224.429 149.951 224.431 148.944V4.71796C224.431 3.70997 224.029 2.74316 223.315 2.02957C222.6 1.31597 221.631 0.913858 220.619 0.911418L220.617 0.911133Z" fill="white"/>
<path d="M3.96828 0.911133H220.964C221.883 0.911133 222.765 1.27509 223.416 1.92293C224.066 2.57076 224.431 3.44942 224.431 4.36561V69.137H0.500977V4.36561C0.500977 3.44942 0.866281 2.57076 1.51653 1.92293C2.16677 1.27509 3.0487 0.911133 3.96828 0.911133Z" fill="#E6E6E6"/>
<path d="M112.61 14.4409C116.725 14.4409 120.747 15.6565 124.168 17.934C127.59 20.2115 130.256 23.4486 131.831 27.2359C133.405 31.0233 133.817 35.1908 133.015 39.2114C132.212 43.232 130.23 46.9252 127.321 49.8239C124.412 52.7226 120.705 54.6966 116.669 55.4964C112.634 56.2961 108.451 55.8857 104.649 54.3169C100.848 52.7481 97.5987 50.0915 95.3127 46.683C93.0268 43.2745 91.8066 39.2672 91.8066 35.1678C91.8066 29.6707 93.9985 24.3987 97.8999 20.5117C101.801 16.6246 107.093 14.4409 112.61 14.4409Z" fill="white"/>
<path d="M112.61 19.623C109.524 19.623 106.508 20.5348 103.942 22.2429C101.376 23.951 99.3762 26.3788 98.1953 29.2193C97.0143 32.0598 96.7053 35.1854 97.3074 38.2009C97.9094 41.2164 99.3955 43.9862 101.578 46.1603C103.76 48.3343 106.54 49.8148 109.566 50.4146C112.593 51.0144 115.73 50.7066 118.581 49.53C121.432 48.3534 123.869 46.361 125.584 43.8046C127.298 41.2482 128.213 38.2427 128.213 35.1682C128.213 31.0454 126.569 27.0914 123.643 24.1761C120.717 21.2608 116.749 19.623 112.61 19.623ZM112.61 24.2866C113.536 24.2866 114.441 24.5601 115.211 25.0725C115.981 25.585 116.581 26.3133 116.935 27.1655C117.289 28.0176 117.382 28.9553 117.201 29.8599C117.021 30.7646 116.575 31.5955 115.92 32.2478C115.266 32.9 114.432 33.3441 113.524 33.5241C112.616 33.704 111.674 33.6117 110.819 33.2587C109.964 32.9057 109.233 32.308 108.718 31.5411C108.204 30.7741 107.93 29.8725 107.93 28.9501C107.93 27.7133 108.423 26.5271 109.301 25.6525C110.178 24.7779 111.369 24.2866 112.61 24.2866ZM112.61 46.7375C110.761 46.7291 108.942 46.2713 107.311 45.4039C105.679 44.5365 104.285 43.2857 103.249 41.7599C103.324 38.6509 109.49 36.9395 112.61 36.9395C115.731 36.9395 121.897 38.6506 121.972 41.7596C120.935 43.2842 119.54 44.534 117.909 45.4011C116.278 46.2682 114.459 46.7265 112.61 46.7364V46.7375Z" fill="#118AB2"/>
<path d="M80.249 79.5H144.972C145.585 79.5 146.173 79.7426 146.607 80.1745C147.04 80.6064 147.284 81.1922 147.284 81.803V86.409C147.284 87.0197 147.04 87.6055 146.607 88.0374C146.173 88.4693 145.585 88.7119 144.972 88.7119H80.249C79.636 88.7119 79.048 88.4693 78.6145 88.0374C78.181 87.6055 77.9375 87.0197 77.9375 86.409V81.803C77.9375 81.1922 78.181 80.6064 78.6145 80.1745C79.048 79.7426 79.636 79.5 80.249 79.5Z" fill="#118AB2"/>
<path d="M101.631 99.0757H202.182C202.642 99.0757 203.083 99.2577 203.408 99.5816C203.733 99.9055 203.916 100.345 203.916 100.803V104.257C203.916 104.715 203.733 105.155 203.408 105.479C203.083 105.803 202.642 105.985 202.182 105.985H101.631C101.171 105.985 100.73 105.803 100.405 105.479C100.08 105.155 99.897 104.715 99.897 104.257V100.803C99.897 100.345 100.08 99.9055 100.405 99.5816C100.73 99.2577 101.171 99.0757 101.631 99.0757Z" fill="#E6E6E6"/>
<path d="M101.631 122.105H202.182C202.642 122.105 203.083 122.287 203.408 122.611C203.733 122.935 203.916 123.375 203.916 123.833V127.287C203.916 127.745 203.733 128.185 203.408 128.509C203.083 128.832 202.642 129.014 202.182 129.014H101.631C101.171 129.014 100.73 128.832 100.405 128.509C100.08 128.185 99.897 127.745 99.897 127.287V123.833C99.897 123.375 100.08 122.935 100.405 122.611C100.73 122.287 101.171 122.105 101.631 122.105Z" fill="#E6E6E6"/>
<path d="M101.631 110.59H202.182C202.642 110.59 203.083 110.772 203.408 111.096C203.733 111.42 203.916 111.859 203.916 112.318V115.772C203.916 116.23 203.733 116.669 203.408 116.993C203.083 117.317 202.642 117.499 202.182 117.499H101.631C101.171 117.499 100.73 117.317 100.405 116.993C100.08 116.669 99.897 116.23 99.897 115.772V112.318C99.897 111.859 100.08 111.42 100.405 111.096C100.73 110.772 101.171 110.59 101.631 110.59Z" fill="#E6E6E6"/>
<path d="M57.1336 99.0757H89.4951C89.8016 99.0757 90.0956 99.197 90.3123 99.4129C90.5291 99.6289 90.6508 99.9218 90.6508 100.227V104.833C90.6508 105.139 90.5291 105.431 90.3123 105.647C90.0956 105.863 89.8016 105.985 89.4951 105.985H57.1336C56.827 105.985 56.533 105.863 56.3163 105.647C56.0996 105.431 55.9778 105.139 55.9778 104.833V100.227C55.9778 99.9218 56.0996 99.6289 56.3163 99.4129C56.533 99.197 56.827 99.0757 57.1336 99.0757Z" fill="#E6E6E6"/>
<path d="M57.1336 110.59H89.4951C89.8016 110.59 90.0956 110.712 90.3123 110.928C90.5291 111.144 90.6508 111.436 90.6508 111.742V116.348C90.6508 116.653 90.5291 116.946 90.3123 117.162C90.0956 117.378 89.8016 117.499 89.4951 117.499H57.1336C56.827 117.499 56.533 117.378 56.3163 117.162C56.0996 116.946 55.9778 116.653 55.9778 116.348V111.742C55.9778 111.436 56.0996 111.144 56.3163 110.928C56.533 110.712 56.827 110.59 57.1336 110.59Z" fill="#E6E6E6"/>
<path d="M57.1336 122.105H89.4951C89.8016 122.105 90.0956 122.227 90.3123 122.443C90.5291 122.659 90.6508 122.952 90.6508 123.257V127.863C90.6508 128.168 90.5291 128.461 90.3123 128.677C90.0956 128.893 89.8016 129.014 89.4951 129.014H57.1336C56.827 129.014 56.533 128.893 56.3163 128.677C56.0996 128.461 55.9778 128.168 55.9778 127.863V123.257C55.9778 122.952 56.0996 122.659 56.3163 122.443C56.533 122.227 56.827 122.105 57.1336 122.105Z" fill="#E6E6E6"/>
<path d="M183.401 135.06H201.605C202.218 135.06 202.806 135.302 203.239 135.734C203.673 136.166 203.916 136.752 203.916 137.363V141.969C203.916 142.579 203.673 143.165 203.239 143.597C202.806 144.029 202.218 144.272 201.605 144.272H183.401C182.788 144.272 182.2 144.029 181.767 143.597C181.333 143.165 181.09 142.579 181.09 141.969V137.363C181.09 136.752 181.333 136.166 181.767 135.734C182.2 135.302 182.788 135.06 183.401 135.06Z" fill="#118AB2"/>
<g clip-path="url(#clip1_64_52)">
<path d="M38 99H26V105H20V117H26V123H38V117H44V105H38V99Z" fill="#118AB2"/>
</g>
</g>
<circle cx="272.5" cy="79.5" r="79.5" fill="#118AB2"/>
<path d="M242.408 83.7991L262.469 103.861L302.592 60.8716" stroke="white" stroke-width="8.5978" stroke-linecap="round" stroke-linejoin="round"/>
<defs>
<clipPath id="clip0_64_52">
<rect width="231" height="159" fill="white"/>
</clipPath>
<clipPath id="clip1_64_52">
<rect width="24" height="24" fill="white" transform="translate(20 99)"/>
</clipPath>
</defs>
</svg>
